<mxfile host="www.draw.io" modified="2019-11-10T22:29:16.342Z" agent="Mozilla/5.0 (X11; Linux x86_64) AppleWebKit/537.36 (KHTML, like Gecko) Chrome/78.0.3904.97 Safari/537.36" etag="ktD7ru4E0dsvidu6seUh" version="12.2.3" type="github" pages="1">
  <diagram id="xAz4iiBJKEBjbIMObTwl" name="Page-1">
    <mxGraphModel dx="1338" dy="760" grid="1" gridSize="10" guides="1" tooltips="1" connect="1" arrows="1" fold="1" page="1" pageScale="1" pageWidth="850" pageHeight="1100" math="0" shadow="0">
      <root>
        <mxCell id="0"/>
        <mxCell id="1" parent="0"/>
        <mxCell id="O_6e-U9sGGSiC15rQUN6-2" style="edgeStyle=orthogonalEdgeStyle;rounded=0;orthogonalLoop=1;jettySize=auto;html=1;exitX=0.5;exitY=1;exitDx=0;exitDy=0;endArrow=none;endFill=0;" edge="1" parent="1" source="O_6e-U9sGGSiC15rQUN6-1">
          <mxGeometry relative="1" as="geometry">
            <mxPoint x="230" y="770" as="targetPoint"/>
          </mxGeometry>
        </mxCell>
        <mxCell id="O_6e-U9sGGSiC15rQUN6-1" value="Sender" style="rounded=0;whiteSpace=wrap;html=1;" vertex="1" parent="1">
          <mxGeometry x="170" y="40" width="120" height="60" as="geometry"/>
        </mxCell>
        <mxCell id="O_6e-U9sGGSiC15rQUN6-4" style="edgeStyle=orthogonalEdgeStyle;rounded=0;orthogonalLoop=1;jettySize=auto;html=1;exitX=0.5;exitY=1;exitDx=0;exitDy=0;endArrow=none;endFill=0;" edge="1" parent="1" source="O_6e-U9sGGSiC15rQUN6-5">
          <mxGeometry relative="1" as="geometry">
            <mxPoint x="460" y="770" as="targetPoint"/>
          </mxGeometry>
        </mxCell>
        <mxCell id="O_6e-U9sGGSiC15rQUN6-5" value="Signaling" style="rounded=0;whiteSpace=wrap;html=1;" vertex="1" parent="1">
          <mxGeometry x="400" y="40" width="120" height="60" as="geometry"/>
        </mxCell>
        <mxCell id="O_6e-U9sGGSiC15rQUN6-6" style="edgeStyle=orthogonalEdgeStyle;rounded=0;orthogonalLoop=1;jettySize=auto;html=1;exitX=0.5;exitY=1;exitDx=0;exitDy=0;endArrow=none;endFill=0;" edge="1" parent="1" source="O_6e-U9sGGSiC15rQUN6-7">
          <mxGeometry relative="1" as="geometry">
            <mxPoint x="690" y="770" as="targetPoint"/>
          </mxGeometry>
        </mxCell>
        <mxCell id="O_6e-U9sGGSiC15rQUN6-7" value="Receiver" style="rounded=0;whiteSpace=wrap;html=1;" vertex="1" parent="1">
          <mxGeometry x="630" y="40" width="120" height="60" as="geometry"/>
        </mxCell>
        <mxCell id="O_6e-U9sGGSiC15rQUN6-8" value="" style="endArrow=classic;html=1;" edge="1" parent="1">
          <mxGeometry width="50" height="50" relative="1" as="geometry">
            <mxPoint x="690" y="120" as="sourcePoint"/>
            <mxPoint x="460" y="120" as="targetPoint"/>
          </mxGeometry>
        </mxCell>
        <mxCell id="O_6e-U9sGGSiC15rQUN6-9" value="register" style="text;html=1;resizable=0;points=[];align=center;verticalAlign=middle;labelBackgroundColor=#ffffff;" vertex="1" connectable="0" parent="O_6e-U9sGGSiC15rQUN6-8">
          <mxGeometry x="-0.0786" relative="1" as="geometry">
            <mxPoint x="-14" y="-10" as="offset"/>
          </mxGeometry>
        </mxCell>
        <mxCell id="O_6e-U9sGGSiC15rQUN6-10" value="" style="endArrow=classic;html=1;" edge="1" parent="1">
          <mxGeometry width="50" height="50" relative="1" as="geometry">
            <mxPoint x="460" y="160" as="sourcePoint"/>
            <mxPoint x="690" y="160" as="targetPoint"/>
          </mxGeometry>
        </mxCell>
        <mxCell id="O_6e-U9sGGSiC15rQUN6-12" value="" style="endArrow=classic;html=1;" edge="1" parent="1">
          <mxGeometry width="50" height="50" relative="1" as="geometry">
            <mxPoint x="690" y="210" as="sourcePoint"/>
            <mxPoint x="460" y="210" as="targetPoint"/>
          </mxGeometry>
        </mxCell>
        <mxCell id="O_6e-U9sGGSiC15rQUN6-13" value="create_session" style="text;html=1;resizable=0;points=[];align=center;verticalAlign=middle;labelBackgroundColor=#ffffff;" vertex="1" connectable="0" parent="O_6e-U9sGGSiC15rQUN6-12">
          <mxGeometry x="-0.0786" relative="1" as="geometry">
            <mxPoint x="-14" y="-10" as="offset"/>
          </mxGeometry>
        </mxCell>
        <mxCell id="O_6e-U9sGGSiC15rQUN6-14" value="" style="endArrow=classic;html=1;" edge="1" parent="1">
          <mxGeometry width="50" height="50" relative="1" as="geometry">
            <mxPoint x="460" y="260" as="sourcePoint"/>
            <mxPoint x="690" y="260" as="targetPoint"/>
          </mxGeometry>
        </mxCell>
        <mxCell id="O_6e-U9sGGSiC15rQUN6-15" value="" style="endArrow=none;html=1;startArrow=classic;startFill=1;endFill=0;" edge="1" parent="1">
          <mxGeometry width="50" height="50" relative="1" as="geometry">
            <mxPoint x="460" y="290" as="sourcePoint"/>
            <mxPoint x="230" y="290" as="targetPoint"/>
          </mxGeometry>
        </mxCell>
        <mxCell id="O_6e-U9sGGSiC15rQUN6-16" value="register" style="text;html=1;resizable=0;points=[];align=center;verticalAlign=middle;labelBackgroundColor=#ffffff;" vertex="1" connectable="0" parent="O_6e-U9sGGSiC15rQUN6-15">
          <mxGeometry x="-0.0786" relative="1" as="geometry">
            <mxPoint x="-14" y="-10" as="offset"/>
          </mxGeometry>
        </mxCell>
        <mxCell id="O_6e-U9sGGSiC15rQUN6-17" value="" style="endArrow=classic;html=1;" edge="1" parent="1">
          <mxGeometry width="50" height="50" relative="1" as="geometry">
            <mxPoint x="460" y="330" as="sourcePoint"/>
            <mxPoint x="230" y="330" as="targetPoint"/>
          </mxGeometry>
        </mxCell>
        <mxCell id="O_6e-U9sGGSiC15rQUN6-19" value="" style="endArrow=none;html=1;startArrow=classic;startFill=1;endFill=0;" edge="1" parent="1">
          <mxGeometry width="50" height="50" relative="1" as="geometry">
            <mxPoint x="460" y="380" as="sourcePoint"/>
            <mxPoint x="230" y="380" as="targetPoint"/>
          </mxGeometry>
        </mxCell>
        <mxCell id="O_6e-U9sGGSiC15rQUN6-20" value="observe" style="text;html=1;resizable=0;points=[];align=center;verticalAlign=middle;labelBackgroundColor=#ffffff;" vertex="1" connectable="0" parent="O_6e-U9sGGSiC15rQUN6-19">
          <mxGeometry x="-0.0786" relative="1" as="geometry">
            <mxPoint x="-14" y="-10" as="offset"/>
          </mxGeometry>
        </mxCell>
        <mxCell id="O_6e-U9sGGSiC15rQUN6-23" value="" style="endArrow=classic;html=1;" edge="1" parent="1">
          <mxGeometry width="50" height="50" relative="1" as="geometry">
            <mxPoint x="460" y="420" as="sourcePoint"/>
            <mxPoint x="230" y="420" as="targetPoint"/>
          </mxGeometry>
        </mxCell>
        <mxCell id="O_6e-U9sGGSiC15rQUN6-24" value="" style="endArrow=none;html=1;startArrow=classic;startFill=1;endFill=0;" edge="1" parent="1">
          <mxGeometry width="50" height="50" relative="1" as="geometry">
            <mxPoint x="460" y="530" as="sourcePoint"/>
            <mxPoint x="230" y="530" as="targetPoint"/>
          </mxGeometry>
        </mxCell>
        <mxCell id="O_6e-U9sGGSiC15rQUN6-25" value="connect" style="text;html=1;resizable=0;points=[];align=center;verticalAlign=middle;labelBackgroundColor=#ffffff;" vertex="1" connectable="0" parent="O_6e-U9sGGSiC15rQUN6-24">
          <mxGeometry x="-0.0786" relative="1" as="geometry">
            <mxPoint x="-14" y="-10" as="offset"/>
          </mxGeometry>
        </mxCell>
        <mxCell id="O_6e-U9sGGSiC15rQUN6-26" value="" style="endArrow=classic;html=1;" edge="1" parent="1">
          <mxGeometry width="50" height="50" relative="1" as="geometry">
            <mxPoint x="460" y="570" as="sourcePoint"/>
            <mxPoint x="690" y="570" as="targetPoint"/>
          </mxGeometry>
        </mxCell>
        <mxCell id="O_6e-U9sGGSiC15rQUN6-34" value="confirm" style="text;html=1;resizable=0;points=[];align=center;verticalAlign=middle;labelBackgroundColor=#ffffff;" vertex="1" connectable="0" parent="O_6e-U9sGGSiC15rQUN6-26">
          <mxGeometry x="0.087" y="-3" relative="1" as="geometry">
            <mxPoint x="-15" y="-13" as="offset"/>
          </mxGeometry>
        </mxCell>
        <mxCell id="O_6e-U9sGGSiC15rQUN6-27" value="" style="endArrow=classic;html=1;" edge="1" parent="1">
          <mxGeometry width="50" height="50" relative="1" as="geometry">
            <mxPoint x="460" y="470" as="sourcePoint"/>
            <mxPoint x="230" y="470" as="targetPoint"/>
          </mxGeometry>
        </mxCell>
        <mxCell id="O_6e-U9sGGSiC15rQUN6-28" value="update" style="text;html=1;resizable=0;points=[];align=center;verticalAlign=middle;labelBackgroundColor=#ffffff;" vertex="1" connectable="0" parent="O_6e-U9sGGSiC15rQUN6-27">
          <mxGeometry x="0.087" y="-1" relative="1" as="geometry">
            <mxPoint x="5" y="-9" as="offset"/>
          </mxGeometry>
        </mxCell>
        <mxCell id="O_6e-U9sGGSiC15rQUN6-30" value="update message will be received everytime receivers come and go" style="text;html=1;strokeColor=none;fillColor=none;align=center;verticalAlign=middle;whiteSpace=wrap;rounded=0;dashed=1;" vertex="1" parent="1">
          <mxGeometry x="50" y="410" width="140" height="60" as="geometry"/>
        </mxCell>
        <mxCell id="O_6e-U9sGGSiC15rQUN6-33" value="" style="endArrow=none;dashed=1;html=1;entryX=1;entryY=0.5;entryDx=0;entryDy=0;edgeStyle=orthogonalEdgeStyle;curved=1;" edge="1" parent="1" target="O_6e-U9sGGSiC15rQUN6-30">
          <mxGeometry width="50" height="50" relative="1" as="geometry">
            <mxPoint x="300" y="470" as="sourcePoint"/>
            <mxPoint x="290" y="430" as="targetPoint"/>
            <Array as="points">
              <mxPoint x="300" y="440"/>
            </Array>
          </mxGeometry>
        </mxCell>
        <mxCell id="O_6e-U9sGGSiC15rQUN6-37" value="" style="endArrow=classic;html=1;" edge="1" parent="1">
          <mxGeometry width="50" height="50" relative="1" as="geometry">
            <mxPoint x="460" y="660" as="sourcePoint"/>
            <mxPoint x="230" y="660" as="targetPoint"/>
          </mxGeometry>
        </mxCell>
        <mxCell id="O_6e-U9sGGSiC15rQUN6-38" value="confirm" style="text;html=1;resizable=0;points=[];align=center;verticalAlign=middle;labelBackgroundColor=#ffffff;" vertex="1" connectable="0" parent="O_6e-U9sGGSiC15rQUN6-37">
          <mxGeometry x="0.087" y="-1" relative="1" as="geometry">
            <mxPoint x="5" y="-9" as="offset"/>
          </mxGeometry>
        </mxCell>
        <mxCell id="O_6e-U9sGGSiC15rQUN6-39" value="" style="endArrow=classic;html=1;" edge="1" parent="1">
          <mxGeometry width="50" height="50" relative="1" as="geometry">
            <mxPoint x="690" y="620" as="sourcePoint"/>
            <mxPoint x="460" y="620" as="targetPoint"/>
          </mxGeometry>
        </mxCell>
        <mxCell id="O_6e-U9sGGSiC15rQUN6-40" value="confirm" style="text;html=1;resizable=0;points=[];align=center;verticalAlign=middle;labelBackgroundColor=#ffffff;" vertex="1" connectable="0" parent="O_6e-U9sGGSiC15rQUN6-39">
          <mxGeometry x="0.087" y="-1" relative="1" as="geometry">
            <mxPoint x="5" y="-9" as="offset"/>
          </mxGeometry>
        </mxCell>
      </root>
    </mxGraphModel>
  </diagram>
</mxfile>
